# Blender 3.6.5
# www.blender.org
mtllib daybox.mtl
o Icosphere
v 0.000000 -1.000000 0.000000
v 0.723607 -0.447220 0.525725
v -0.276388 -0.447220 0.850649
v -0.894426 -0.447216 0.000000
v -0.276388 -0.447220 -0.850649
v 0.723607 -0.447220 -0.525725
v 0.276388 0.447220 0.850649
v -0.723607 0.447220 0.525725
v -0.723607 0.447220 -0.525725
v 0.276388 0.447220 -0.850649
v 0.894426 0.447216 0.000000
v 0.000000 1.000000 0.000000
v -0.162456 -0.850654 0.499995
v 0.425323 -0.850654 0.309011
v 0.262869 -0.525738 0.809012
v 0.850648 -0.525736 0.000000
v 0.425323 -0.850654 -0.309011
v -0.525730 -0.850652 0.000000
v -0.688189 -0.525736 0.499997
v -0.162456 -0.850654 -0.499995
v -0.688189 -0.525736 -0.499997
v 0.262869 -0.525738 -0.809012
v 0.951058 0.000000 0.309013
v 0.951058 0.000000 -0.309013
v 0.000000 0.000000 1.000000
v 0.587786 0.000000 0.809017
v -0.951058 0.000000 0.309013
v -0.587786 0.000000 0.809017
v -0.587786 0.000000 -0.809017
v -0.951058 0.000000 -0.309013
v 0.587786 0.000000 -0.809017
v 0.000000 0.000000 -1.000000
v 0.688189 0.525736 0.499997
v -0.262869 0.525738 0.809012
v -0.850648 0.525736 0.000000
v -0.262869 0.525738 -0.809012
v 0.688189 0.525736 -0.499997
v 0.162456 0.850654 0.499995
v 0.525730 0.850652 0.000000
v -0.425323 0.850654 0.309011
v -0.425323 0.850654 -0.309011
v 0.162456 0.850654 -0.499995
vn -0.1024 0.9435 -0.3151
vn -0.7002 0.6617 -0.2680
vn 0.2680 0.9435 -0.1947
vn 0.2680 0.9435 0.1947
vn -0.1024 0.9435 0.3151
vn -0.9050 0.3304 -0.2680
vn -0.0247 0.3304 -0.9435
vn 0.8897 0.3304 -0.3151
vn 0.5746 0.3304 0.7488
vn -0.5346 0.3304 0.7779
vn -0.8026 0.1256 -0.5831
vn 0.3066 0.1256 -0.9435
vn 0.9921 0.1256 -0.0000
vn 0.3066 0.1256 0.9435
vn -0.8026 0.1256 0.5831
vn -0.4089 -0.6617 -0.6284
vn 0.4713 -0.6617 -0.5831
vn 0.7002 -0.6617 0.2680
vn -0.0385 -0.6617 0.7488
vn -0.7240 -0.6617 0.1947
vn -0.2680 -0.9435 0.1947
vn -0.4911 -0.7947 0.3568
vn -0.4089 -0.6617 0.6284
vn 0.1024 -0.9435 0.3151
vn 0.1876 -0.7947 0.5773
vn 0.4713 -0.6617 0.5831
vn 0.3313 -0.9435 -0.0000
vn 0.6071 -0.7947 -0.0000
vn 0.7002 -0.6617 -0.2680
vn 0.1024 -0.9435 -0.3151
vn 0.1876 -0.7947 -0.5773
vn -0.0385 -0.6617 -0.7488
vn -0.2680 -0.9435 -0.1947
vn -0.4911 -0.7947 -0.3568
vn -0.7240 -0.6617 -0.1947
vn -0.8897 -0.3304 0.3151
vn -0.7947 -0.1876 0.5773
vn -0.5746 -0.3304 0.7488
vn 0.0247 -0.3304 0.9435
vn 0.3035 -0.1876 0.9342
vn 0.5346 -0.3304 0.7779
vn 0.9050 -0.3304 0.2680
vn 0.9822 -0.1876 -0.0000
vn 0.9050 -0.3304 -0.2680
vn 0.5346 -0.3304 -0.7779
vn 0.3035 -0.1876 -0.9342
vn 0.0247 -0.3304 -0.9435
vn -0.5746 -0.3304 -0.7488
vn -0.7947 -0.1876 -0.5773
vn -0.8897 -0.3304 -0.3151
vn -0.3066 -0.1256 0.9435
vn -0.3035 0.1876 0.9342
vn -0.0247 0.3304 0.9435
vn 0.8026 -0.1256 0.5831
vn 0.7947 0.1876 0.5773
vn 0.8897 0.3304 0.3151
vn 0.8026 -0.1256 -0.5831
vn 0.7947 0.1876 -0.5773
vn 0.5746 0.3304 -0.7488
vn -0.3066 -0.1256 -0.9435
vn -0.3035 0.1876 -0.9342
vn -0.5346 0.3304 -0.7779
vn -0.9921 -0.1256 -0.0000
vn -0.9822 0.1876 -0.0000
vn -0.9050 0.3304 0.2680
vn -0.4713 0.6617 0.5831
vn -0.1876 0.7947 0.5773
vn 0.0385 0.6617 0.7488
vn 0.4089 0.6617 0.6284
vn 0.4911 0.7947 0.3568
vn 0.7240 0.6617 0.1947
vn 0.7240 0.6617 -0.1947
vn 0.4911 0.7947 -0.3568
vn 0.4089 0.6617 -0.6284
vn -0.7002 0.6617 0.2680
vn -0.6071 0.7947 -0.0000
vn -0.3313 0.9435 -0.0000
vn 0.0385 0.6617 -0.7488
vn -0.1876 0.7947 -0.5773
vn -0.4713 0.6617 -0.5831
vt 0.285887 0.301222
vt 0.351589 0.348958
vt 0.260790 0.378460
vt 0.230958 0.470271
vt 0.155875 0.395681
vt 0.351591 0.253486
vt 0.260791 0.223984
vt 0.204674 0.301222
vt 0.112692 0.539436
vt 0.429688 0.405701
vt 0.458922 0.539552
vt 0.335546 0.454060
vt 0.429690 0.196744
vt 0.566023 0.210303
vt 0.446591 0.301222
vt 0.230959 0.132173
vt 0.285986 0.006701
vt 0.335548 0.148384
vt 0.108138 0.301223
vt 0.005812 0.210117
vt 0.155875 0.206764
vt 0.285984 0.595743
vt 0.566023 0.392142
vt 0.458924 0.062893
vt 0.112694 0.063007
vt 0.005812 0.392328
vt 0.767757 0.530686
vt 0.737926 0.622497
vt 0.663169 0.546897
vt 0.890578 0.699736
vt 0.794042 0.699735
vt 0.842841 0.605277
vt 0.767758 0.868784
vt 0.737926 0.776973
vt 0.842842 0.794194
vt 0.569028 0.804214
vt 0.647127 0.747471
vt 0.663171 0.852573
vt 0.569027 0.595257
vt 0.647126 0.651999
vt 0.552126 0.699735
vt 0.712829 0.699735
vt 0.432693 0.608816
vt 0.432694 0.790654
vt 0.539794 0.938065
vt 0.712732 0.994256
vt 0.886025 0.937949
vt 0.992905 0.790841
vt 0.992905 0.608630
vt 0.886023 0.461520
vt 0.712731 0.405214
vt 0.539792 0.461406
s 0
usemtl Material.001
f 1/1/1 13/2/1 14/3/1
f 2/4/2 16/5/2 14/3/2
f 1/1/3 18/6/3 13/2/3
f 1/1/4 20/7/4 18/6/4
f 1/1/5 17/8/5 20/7/5
f 2/4/6 23/9/6 16/5/6
f 3/10/7 25/11/7 15/12/7
f 4/13/8 27/14/8 19/15/8
f 5/16/9 29/17/9 21/18/9
f 6/19/10 31/20/10 22/21/10
f 2/4/11 26/22/11 23/9/11
f 3/10/12 28/23/12 25/11/12
f 4/13/13 30/24/13 27/14/13
f 5/16/14 32/25/14 29/17/14
f 6/19/15 24/26/15 31/20/15
f 7/27/16 38/28/16 33/29/16
f 8/30/17 40/31/17 34/32/17
f 9/33/18 41/34/18 35/35/18
f 10/36/19 42/37/19 36/38/19
f 11/39/20 39/40/20 37/41/20
f 39/40/21 12/42/21 42/37/21
f 39/40/22 42/37/22 37/41/22
f 37/41/23 42/37/23 10/36/23
f 42/37/24 12/42/24 41/34/24
f 42/37/25 41/34/25 36/38/25
f 36/38/26 41/34/26 9/33/26
f 41/34/27 12/42/27 40/31/27
f 41/34/28 40/31/28 35/35/28
f 35/35/29 40/31/29 8/30/29
f 40/31/30 12/42/30 38/28/30
f 40/31/31 38/28/31 34/32/31
f 34/32/32 38/28/32 7/27/32
f 38/28/33 12/42/33 39/40/33
f 38/28/34 39/40/34 33/29/34
f 33/29/35 39/40/35 11/39/35
f 24/43/36 11/39/36 37/41/36
f 24/43/37 37/41/37 31/44/37
f 31/44/38 37/41/38 10/36/38
f 32/45/39 10/36/39 36/38/39
f 32/45/40 36/38/40 29/46/40
f 29/46/41 36/38/41 9/33/41
f 30/47/42 9/33/42 35/35/42
f 30/47/43 35/35/43 27/48/43
f 27/48/44 35/35/44 8/30/44
f 28/49/45 8/30/45 34/32/45
f 28/49/46 34/32/46 25/50/46
f 25/50/47 34/32/47 7/27/47
f 26/51/48 7/27/48 33/29/48
f 26/51/49 33/29/49 23/52/49
f 23/52/50 33/29/50 11/39/50
f 31/44/51 10/36/51 32/45/51
f 31/20/52 32/25/52 22/21/52
f 22/21/53 32/25/53 5/16/53
f 29/46/54 9/33/54 30/47/54
f 29/17/55 30/24/55 21/18/55
f 21/18/56 30/24/56 4/13/56
f 27/48/57 8/30/57 28/49/57
f 27/14/58 28/23/58 19/15/58
f 19/15/59 28/23/59 3/10/59
f 25/50/60 7/27/60 26/51/60
f 25/11/61 26/22/61 15/12/61
f 15/12/62 26/22/62 2/4/62
f 23/52/63 11/39/63 24/43/63
f 23/9/64 24/26/64 16/5/64
f 16/5/65 24/26/65 6/19/65
f 17/8/66 6/19/66 22/21/66
f 17/8/67 22/21/67 20/7/67
f 20/7/68 22/21/68 5/16/68
f 20/7/69 5/16/69 21/18/69
f 20/7/70 21/18/70 18/6/70
f 18/6/71 21/18/71 4/13/71
f 18/6/72 4/13/72 19/15/72
f 18/6/73 19/15/73 13/2/73
f 13/2/74 19/15/74 3/10/74
f 16/5/75 6/19/75 17/8/75
f 16/5/76 17/8/76 14/3/76
f 14/3/77 17/8/77 1/1/77
f 13/2/78 3/10/78 15/12/78
f 13/2/79 15/12/79 14/3/79
f 14/3/80 15/12/80 2/4/80
